# xmcd
#
# Track frame offsets:
#	150
#	14497
#	32625
#	47870
#	65462
#	82162
#	101660
#	115267
#	131857
#	145762
#	161367
#	175715
#	193845
#	209092
#	226682
#	243385
#	262880
#	276485
#	293077
#	306980
#
# Disc length: 4301 seconds
#
# Revision: 1
# Processed by: cddbd v1.5.1PL2 Copyright (c) Steve Scherf et al.
# Submitted via: audiograbber 1.83.01
#
DISCID=2b10cb14
DTITLE=Top Hits Monthly Country - Thmc0401
DYEAR=2004
DGENRE=Karaoke
TTITLE0=Brooks And Dunn (Vocal) - You Can't Take The Honky Tonk Out Out Of The 
TTITLE0=Girl
TTITLE1=Sara Evans (Vocal) - Perfect
TTITLE2=Trace Adkins (Vocal) - Hot Mama
TTITLE3=Shania Twain (Vocal) - She's Not Just A Pretty Face
TTITLE4=Kellie Coffey (Vocal) - Texas Plates
TTITLE5=Gill Vince (Vocal) - Young Man's Town
TTITLE6=Joe Nichols (Vocal) - Cool To Be A Fool
TTITLE7=Brian Mccomas (Vocal) - You're In My Head
TTITLE8=Blue County (Vocal) - Good Little Girls
TTITLE9=Emerick Scotty And Toby Keith (Vocal) - I Can't Take You Anywhere
TTITLE10=Brooks And Dunn - You Can't Take The Honky Tonk Out Out Out Of The Gir
TTITLE10=l
TTITLE11=Sara Evans - Perfect
TTITLE12=Trace Adkins - Hot Mama
TTITLE13=Shania Twain - She's Not Just A Pretty Face
TTITLE14=Kellie Coffey - Texas Plates
TTITLE15=Gill Vince - Young Man's Town
TTITLE16=Joe Nichols - Cool To Be A Fool
TTITLE17=Brian Mccomas - You're In My Head
TTITLE18=Blue County - Good Little Girls
TTITLE19=Emerick Scotty And Toby Keith - I Can't Take You Anywhere
EXTD=
EXTT0=
EXTT1=
EXTT2=
EXTT3=
EXTT4=
EXTT5=
EXTT6=
EXTT7=
EXTT8=
EXTT9=
EXTT10=
EXTT11=
EXTT12=
EXTT13=
EXTT14=
EXTT15=
EXTT16=
EXTT17=
EXTT18=
EXTT19=
PLAYORDER=
